{"title":"The Cabin In The Woods 2011 DVDRip XviD-EXViD","uid":7537733,"size":769120711,"categoryP":"video","categoryS":"movies","magnet":"?xt=urn:btih:2657f6de2b12ad8192e16dc042b864c966d63c63&amp;dn=The+Cabin+In+The+Woods+2011+DVDRip+XviD-EXViD&amp;tr=udp%3A%2F%2Ftracker.openbittorrent.com%3A80&amp;tr=udp%3A%2F%2Fopen.demonii.com%3A1337&amp;tr=udp%3A%2F%2Ftracker.coppersurfer.tk%3A6969&amp;tr=udp%3A%2F%2Fexodus.desync.com%3A6969","seeders":1,"leechers":0,"uploader":"HeroMaster","files":-1,"time":1345137631,"description":"EXViD aims to iNTERNAL those releases which have been lost in the archives.\nEXViD aims to PRE non-internal releases which have poor sources and are likely skipped by others.\n &lt;a href=&quot;\nhttp://www.imdb.com/title/tt1259521/&quot; rel=&quot;nofollow&quot; target=&quot;_NEW&quot;&gt;\nhttp://www.imdb.com/title/tt1259521/&lt;/a&gt;\nSubtitles: NL, FR\nDate: 2012.08\n\nDirector: Drew Goddard\n\nGenres: Horror | Sci-Fi | Thriller\n\nPlot:\nFive teenagers head off for a weekend at a secluded cabin in the woods. They \narrive to find they are quite isolated with no means of communicating with the outside world.  \n\nCast:\nKristen Connolly      ...     Dana \nChris Hemsworth      ...     Curt \nAnna Hutchison      ...     Jules \nFran Kranz      ...     Marty \nJesse Williams      ...     Holden \nRichard Jenkins      ...     Sitterson \nBradley Whitford      ...     Hadley \nBrian White      ...      Truman \n\nStats:\nFormat                           : AVI\nFormat/Info                      : Audio Video Interleave\nFile size                        : 700 MiB\nDuration                         : 1h 31mn\nOverall bit rate                 : 1 074 Kbps\nWriting application              : VirtualDubMod 1.5.10.2 (build 2540/release)\nWriting library                  : VirtualDubMod build 2540/release\n\nVideo\nID                               : 0\nFormat                           : MPEG-4 Visual\nFormat profile                   : Advanced Simple@L5\nFormat settings, BVOP            : Yes\nFormat settings, QPel            : No\nFormat settings, GMC             : No warppoints\nFormat settings, Matrix          : Default (H.263)\nMuxing mode                      : Packed bitstream\nCodec ID                         : XVID\nCodec ID/Hint                    : XviD\nDuration                         : 1h 31mn\nBit rate                         : 939 Kbps\nWidth                            : 640 pixels\nHeight                           : 272 pixels\nDisplay aspect ratio             : 2.35:1\nFrame rate                       : 25.000 fps\nColor space                      : YUV\nChroma subsampling               : 4:2:0\nBit depth                        : 8 bits\nScan type                        : Progressive\nBits/(Pixel*Frame)               : 0.216\nStream size                      : 612 MiB (87%)\nWriting library                  : XviD 64\n\nAudio\nID                               : 1\nFormat                           : MPEG Audio\nFormat version                   : Version 1\nFormat profile                   : Layer 3\nMode                             : Joint stereo\nMode extension                   : MS Stereo\nCodec ID                         : 55\nCodec ID/Hint                    : MP3\nDuration                         : 1h 31mn\nBit rate mode                    : Variable\nBit rate                         : 128 Kbps\nChannel(s)                       : 2 channels\nSampling rate                    : 48.0 KHz\nStream size                      : 79.9 MiB (11%)\nAlignment                        : Aligned on interleaves\n\nRelease notes:\nenjoy!\n\nLooking for:\n75TB+ Archives\nDUTCH/FLEMiSH Archives\n                                                                                                    \nGreets: CRBS EPiSODE FiCO FLS iLS KLASSiGER LiPSYNC MADE NODLABS RUNNER SPRiNTER  \n\n\nPoster:\n\n &lt;a href=&quot;\nhttp://i.imgur.com/HZm79.jpg&quot; rel=&quot;nofollow&quot; target=&quot;_NEW&quot;&gt;\nhttp://i.imgur.com/HZm79.jpg&lt;/a&gt;\n\n\nScreenshots:\n\n &lt;a href=&quot;\nhttp://i.imgur.com/gnFhr.jpg&quot; rel=&quot;nofollow&quot; target=&quot;_NEW&quot;&gt;\nhttp://i.imgur.com/gnFhr.jpg&lt;/a&gt;\n\n\nENJOY!","torrent":{"xt":"urn:btih:2657f6de2b12ad8192e16dc042b864c966d63c63","amp;dn":"The+Cabin+In+The+Woods+2011+DVDRip+XviD-EXViD","amp;tr":["udp%3A%2F%2Ftracker.openbittorrent.com%3A80","udp%3A%2F%2Fopen.demonii.com%3A1337","udp%3A%2F%2Ftracker.coppersurfer.tk%3A6969","udp%3A%2F%2Fexodus.desync.com%3A6969"],"infoHash":"2657f6de2b12ad8192e16dc042b864c966d63c63","infoHashBuffer":{"type":"Buffer","data":[38,87,246,222,43,18,173,129,146,225,109,192,66,184,100,201,102,214,60,99]},"announce":[],"urlList":[]}}